<svg xmlns="http://www.w3.org/2000/svg" xmlns:xlink="http://www.w3.org/1999/xlink" width="500" zoomAndPan="magnify" viewBox="0 0 375 374.999991" height="500" preserveAspectRatio="xMidYMid meet" version="1.0"><defs><g/><clipPath id="cffd3effa5"><path d="M 167 124 L 207 124 L 207 178 L 167 178 Z M 167 124 " clip-rule="nonzero"/></clipPath><clipPath id="41459f7384"><path d="M 194.753906 124.605469 L 206.828125 131.890625 L 179.527344 177.128906 L 167.453125 169.839844 Z M 194.753906 124.605469 " clip-rule="nonzero"/></clipPath><clipPath id="b2b1326e3b"><path d="M 194.753906 124.605469 L 206.828125 131.890625 L 179.539062 177.109375 L 167.464844 169.820312 Z M 194.753906 124.605469 " clip-rule="nonzero"/></clipPath><clipPath id="d9317bf320"><path d="M 168 131 L 196 131 L 196 159 L 168 159 Z M 168 131 " clip-rule="nonzero"/></clipPath><clipPath id="0159e93b60"><path d="M 178.839844 131.804688 L 195.296875 141.738281 L 185.171875 158.511719 L 168.714844 148.582031 Z M 178.839844 131.804688 " clip-rule="nonzero"/></clipPath><clipPath id="d99f655d8d"><path d="M 178.839844 131.804688 L 195.296875 141.738281 L 185.175781 158.5 L 168.722656 148.570312 Z M 178.839844 131.804688 " clip-rule="nonzero"/></clipPath><clipPath id="88bf96f59e"><path d="M 187 133 L 214 133 L 214 159 L 187 159 Z M 187 133 " clip-rule="nonzero"/></clipPath><clipPath id="4cff083710"><path d="M 197.007812 133.59375 L 213.503906 143.550781 L 204.464844 158.527344 L 187.96875 148.570312 Z M 197.007812 133.59375 " clip-rule="nonzero"/></clipPath><clipPath id="8ccf9dbea7"><path d="M 197.007812 133.59375 L 213.460938 143.527344 L 204.421875 158.5 L 187.96875 148.570312 Z M 197.007812 133.59375 " clip-rule="nonzero"/></clipPath></defs><rect x="-37.5" width="450" fill="#ffffff" y="-37.499999" height="449.999989" fill-opacity="1"/><rect x="-37.5" width="450" fill="#ffffff" y="-37.499999" height="449.999989" fill-opacity="1"/><g fill="#3d3b3a" fill-opacity="1"><g transform="translate(44.700464, 238.401168)"><g><path d="M 9.40625 -9.953125 L 3.515625 -9.953125 L 3.515625 -6.578125 L 8.859375 -6.578125 L 8.859375 -4.8125 L 3.515625 -4.8125 L 3.515625 0 L 1.546875 0 L 1.546875 -11.734375 L 9.421875 -11.734375 Z M 9.40625 -9.953125 "/></g></g></g><g fill="#3d3b3a" fill-opacity="1"><g transform="translate(61.053479, 238.401168)"><g><path d="M 9.125 -2.65625 L 3.203125 -2.65625 L 2.078125 0 L 0.015625 0 L 5.203125 -11.734375 L 7.21875 -11.734375 L 12.359375 0 L 10.25 0 Z M 8.359375 -4.40625 L 6.15625 -9.625 L 3.9375 -4.40625 Z M 8.359375 -4.40625 "/></g></g></g><g fill="#3d3b3a" fill-opacity="1"><g transform="translate(80.140239, 238.401168)"><g><path d="M 10.4375 -10.3125 L 3.296875 -1.78125 L 10.53125 -1.78125 L 10.53125 0 L 0.625 0 L 0.625 -1.421875 L 7.78125 -9.953125 L 0.84375 -9.953125 L 0.84375 -11.734375 L 10.4375 -11.734375 Z M 10.4375 -10.3125 "/></g></g></g><g fill="#3d3b3a" fill-opacity="1"><g transform="translate(98.019456, 238.401168)"><g><path d="M 3.515625 -1.796875 L 8.59375 -1.796875 L 8.59375 0 L 1.546875 0 L 1.546875 -11.734375 L 3.515625 -11.734375 Z M 3.515625 -1.796875 "/></g></g></g><g fill="#3d3b3a" fill-opacity="1"><g transform="translate(113.684849, 238.401168)"><g><path d="M 9.921875 -9.953125 L 3.515625 -9.953125 L 3.515625 -6.796875 L 9.25 -6.796875 L 9.25 -5.015625 L 3.515625 -5.015625 L 3.515625 -1.78125 L 10.125 -1.78125 L 10.125 0 L 1.546875 0 L 1.546875 -11.734375 L 9.921875 -11.734375 Z M 9.921875 -9.953125 "/></g></g></g><g fill="#3d3b3a" fill-opacity="1"><g transform="translate(131.396351, 238.401168)"><g/></g></g><g fill="#3d3b3a" fill-opacity="1"><g transform="translate(142.432834, 238.401168)"><g><path d="M 9.125 -2.65625 L 3.203125 -2.65625 L 2.078125 0 L 0.015625 0 L 5.203125 -11.734375 L 7.21875 -11.734375 L 12.359375 0 L 10.25 0 Z M 8.359375 -4.40625 L 6.15625 -9.625 L 3.9375 -4.40625 Z M 8.359375 -4.40625 "/></g></g></g><g fill="#3d3b3a" fill-opacity="1"><g transform="translate(161.519595, 238.401168)"><g><path d="M 10.4375 -10.3125 L 3.296875 -1.78125 L 10.53125 -1.78125 L 10.53125 0 L 0.625 0 L 0.625 -1.421875 L 7.78125 -9.953125 L 0.84375 -9.953125 L 0.84375 -11.734375 L 10.4375 -11.734375 Z M 10.4375 -10.3125 "/></g></g></g><g fill="#3d3b3a" fill-opacity="1"><g transform="translate(179.398809, 238.401168)"><g><path d="M 3.515625 0 L 1.546875 0 L 1.546875 -11.734375 L 3.515625 -11.734375 Z M 3.515625 0 "/></g></g></g><g fill="#3d3b3a" fill-opacity="1"><g transform="translate(191.173221, 238.401168)"><g><path d="M 13.953125 0 L 12.125 0 L 12.109375 -8.765625 L 8.40625 -1.21875 L 7.109375 -1.21875 L 3.40625 -8.765625 L 3.40625 0 L 1.546875 0 L 1.546875 -11.734375 L 3.890625 -11.734375 L 7.765625 -3.9375 L 11.625 -11.734375 L 13.953125 -11.734375 Z M 13.953125 0 "/></g></g></g><g fill="#3d3b3a" fill-opacity="1"><g transform="translate(213.39623, 238.401168)"><g/></g></g><g fill="#3d3b3a" fill-opacity="1"><g transform="translate(224.432707, 238.401168)"><g><path d="M 1.546875 -11.734375 L 6.21875 -11.734375 C 7.695312 -11.734375 8.835938 -11.382812 9.640625 -10.6875 C 10.453125 -9.988281 10.859375 -9.003906 10.859375 -7.734375 C 10.859375 -6.398438 10.453125 -5.363281 9.640625 -4.625 C 8.835938 -3.894531 7.695312 -3.53125 6.21875 -3.53125 L 3.515625 -3.53125 L 3.515625 0 L 1.546875 0 Z M 3.515625 -9.953125 L 3.515625 -5.3125 L 6.140625 -5.3125 C 8.023438 -5.3125 8.96875 -6.097656 8.96875 -7.671875 C 8.96875 -9.191406 8.023438 -9.953125 6.140625 -9.953125 Z M 3.515625 -9.953125 "/></g></g></g><g fill="#3d3b3a" fill-opacity="1"><g transform="translate(242.429317, 238.401168)"><g><path d="M 9.125 -2.65625 L 3.203125 -2.65625 L 2.078125 0 L 0.015625 0 L 5.203125 -11.734375 L 7.21875 -11.734375 L 12.359375 0 L 10.25 0 Z M 8.359375 -4.40625 L 6.15625 -9.625 L 3.9375 -4.40625 Z M 8.359375 -4.40625 "/></g></g></g><g fill="#3d3b3a" fill-opacity="1"><g transform="translate(261.516085, 238.401168)"><g><path d="M 9.5625 -9.953125 L 5.828125 -9.953125 L 5.828125 0 L 3.859375 0 L 3.859375 -9.953125 L 0.15625 -9.953125 L 0.15625 -11.734375 L 9.5625 -11.734375 Z M 9.5625 -9.953125 "/></g></g></g><g fill="#3d3b3a" fill-opacity="1"><g transform="translate(277.936192, 238.401168)"><g><path d="M 11.71875 0 L 9.734375 0 L 9.734375 -4.859375 L 3.515625 -4.859375 L 3.515625 0 L 1.546875 0 L 1.546875 -11.734375 L 3.515625 -11.734375 L 3.515625 -6.640625 L 9.734375 -6.640625 L 9.734375 -11.734375 L 11.71875 -11.734375 Z M 11.71875 0 "/></g></g></g><g fill="#3d3b3a" fill-opacity="1"><g transform="translate(297.911838, 238.401168)"><g><path d="M 9.125 -2.65625 L 3.203125 -2.65625 L 2.078125 0 L 0.015625 0 L 5.203125 -11.734375 L 7.21875 -11.734375 L 12.359375 0 L 10.25 0 Z M 8.359375 -4.40625 L 6.15625 -9.625 L 3.9375 -4.40625 Z M 8.359375 -4.40625 "/></g></g></g><g fill="#3d3b3a" fill-opacity="1"><g transform="translate(316.998594, 238.401168)"><g><path d="M 11.71875 0 L 9.78125 0 L 3.515625 -8.421875 L 3.515625 0 L 1.546875 0 L 1.546875 -11.734375 L 3.484375 -11.734375 L 9.78125 -3.296875 L 9.78125 -11.734375 L 11.71875 -11.734375 Z M 11.71875 0 "/></g></g></g><g fill="#3d3b3a" fill-opacity="1"><g transform="translate(156.4273, 149.928648)"><g><path d="M 36.234375 -39.78125 C 36.234375 -39.613281 36.085938 -39.53125 35.796875 -39.53125 C 35.503906 -39.53125 35.359375 -39.613281 35.359375 -39.78125 C 35.359375 -42.507812 34.632812 -44.675781 33.1875 -46.28125 C 31.738281 -47.894531 29.835938 -48.703125 27.484375 -48.703125 L 21.9375 -48.703125 C 19.957031 -48.703125 18.484375 -48.566406 17.515625 -48.296875 C 16.554688 -48.023438 15.890625 -47.539062 15.515625 -46.84375 C 15.140625 -46.15625 14.953125 -45.085938 14.953125 -43.640625 L 14.953125 -25.953125 L 23.703125 -25.953125 C 26.429688 -25.953125 28.359375 -26.367188 29.484375 -27.203125 C 30.609375 -28.035156 31.171875 -29.46875 31.171875 -31.5 C 31.171875 -31.601562 31.332031 -31.65625 31.65625 -31.65625 C 31.976562 -31.65625 32.140625 -31.601562 32.140625 -31.5 L 32.0625 -25.15625 C 32.0625 -23.601562 32.085938 -22.453125 32.140625 -21.703125 L 32.21875 -17.921875 C 32.21875 -17.816406 32.054688 -17.765625 31.734375 -17.765625 C 31.421875 -17.765625 31.265625 -17.816406 31.265625 -17.921875 C 31.265625 -20.328125 30.6875 -22.007812 29.53125 -22.96875 C 28.375 -23.9375 26.328125 -24.421875 23.390625 -24.421875 L 14.953125 -24.421875 L 14.953125 -6.828125 C 14.953125 -5.117188 15.191406 -3.875 15.671875 -3.09375 C 16.148438 -2.3125 17.070312 -1.757812 18.4375 -1.4375 C 19.800781 -1.125 21.984375 -0.96875 24.984375 -0.96875 C 25.148438 -0.96875 25.234375 -0.804688 25.234375 -0.484375 C 25.234375 -0.160156 25.148438 0 24.984375 0 C 22.796875 0 21.082031 -0.0234375 19.84375 -0.078125 L 12.859375 -0.15625 L 7.546875 -0.078125 C 6.585938 -0.0234375 5.25 0 3.53125 0 C 3.425781 0 3.375 -0.160156 3.375 -0.484375 C 3.375 -0.804688 3.425781 -0.96875 3.53125 -0.96875 C 5.625 -0.96875 7.164062 -1.097656 8.15625 -1.359375 C 9.144531 -1.628906 9.8125 -2.148438 10.15625 -2.921875 C 10.507812 -3.703125 10.6875 -4.898438 10.6875 -6.515625 L 10.6875 -43.71875 C 10.6875 -45.320312 10.507812 -46.5 10.15625 -47.25 C 9.8125 -48 9.144531 -48.519531 8.15625 -48.8125 C 7.164062 -49.113281 5.625 -49.265625 3.53125 -49.265625 C 3.425781 -49.265625 3.375 -49.421875 3.375 -49.734375 C 3.375 -50.054688 3.425781 -50.21875 3.53125 -50.21875 L 35.359375 -50.21875 C 35.835938 -50.21875 36.078125 -49.976562 36.078125 -49.5 Z M 36.234375 -39.78125 "/></g></g></g><g fill="#3d3b3a" fill-opacity="1"><g transform="translate(184.92567, 189.169223)"><g><path d="M 14.953125 -6.828125 C 14.953125 -5.117188 15.191406 -3.875 15.671875 -3.09375 C 16.148438 -2.3125 17.070312 -1.757812 18.4375 -1.4375 C 19.800781 -1.125 21.984375 -0.96875 24.984375 -0.96875 C 25.148438 -0.96875 25.234375 -0.804688 25.234375 -0.484375 C 25.234375 -0.160156 25.148438 0 24.984375 0 C 22.796875 0 21.082031 -0.0234375 19.84375 -0.078125 L 12.859375 -0.15625 L 7.546875 -0.078125 C 6.585938 -0.0234375 5.25 0 3.53125 0 C 3.425781 0 3.375 -0.160156 3.375 -0.484375 C 3.375 -0.804688 3.425781 -0.96875 3.53125 -0.96875 C 5.625 -0.96875 7.164062 -1.097656 8.15625 -1.359375 C 9.144531 -1.628906 9.8125 -2.148438 10.15625 -2.921875 C 10.507812 -3.703125 10.6875 -4.898438 10.6875 -6.515625 L 10.6875 -43.71875 C 10.6875 -45.320312 10.507812 -46.5 10.15625 -47.25 C 9.8125 -48 9.144531 -48.519531 8.15625 -48.8125 C 7.164062 -49.113281 5.625 -49.265625 3.53125 -49.265625 C 3.425781 -49.265625 3.375 -49.421875 3.375 -49.734375 C 3.375 -50.054688 3.425781 -50.21875 3.53125 -50.21875 L 7.46875 -50.140625 C 9.71875 -50.035156 11.488281 -49.984375 12.78125 -49.984375 C 14.0625 -49.984375 15.535156 -50.0625 17.203125 -50.21875 C 21.378906 -50.382812 23.65625 -50.46875 24.03125 -50.46875 C 28.738281 -50.46875 32.566406 -49.378906 35.515625 -47.203125 C 38.460938 -45.035156 39.9375 -41.726562 39.9375 -37.28125 C 39.9375 -33.695312 39.050781 -30.6875 37.28125 -28.25 C 35.519531 -25.8125 33.285156 -24 30.578125 -22.8125 C 27.867188 -21.632812 25.066406 -21.046875 22.171875 -21.046875 C 20.566406 -21.046875 19.253906 -21.179688 18.234375 -21.453125 C 18.078125 -21.453125 18 -21.585938 18 -21.859375 C 18 -22.015625 18.035156 -22.171875 18.109375 -22.328125 C 18.191406 -22.492188 18.289062 -22.550781 18.40625 -22.5 C 19.257812 -22.28125 20.222656 -22.171875 21.296875 -22.171875 C 25.097656 -22.171875 28.320312 -23.320312 30.96875 -25.625 C 33.625 -27.9375 34.953125 -31.285156 34.953125 -35.671875 C 34.953125 -38.515625 34.390625 -40.96875 33.265625 -43.03125 C 32.140625 -45.09375 30.597656 -46.671875 28.640625 -47.765625 C 26.691406 -48.867188 24.535156 -49.421875 22.171875 -49.421875 C 19.984375 -49.421875 18.429688 -49.3125 17.515625 -49.09375 C 16.609375 -48.882812 15.953125 -48.390625 15.546875 -47.609375 C 15.148438 -46.835938 14.953125 -45.488281 14.953125 -43.5625 Z M 14.953125 -6.828125 "/></g></g></g><g clip-path="url(#cffd3effa5)"><g clip-path="url(#41459f7384)"><g clip-path="url(#b2b1326e3b)"><path fill="#ffffff" d="M 194.753906 124.605469 L 206.828125 131.890625 L 179.527344 177.128906 L 167.453125 169.839844 Z M 194.753906 124.605469 " fill-opacity="1" fill-rule="nonzero"/></g></g></g><g clip-path="url(#d9317bf320)"><g clip-path="url(#0159e93b60)"><g clip-path="url(#d99f655d8d)"><path fill="#ffffff" d="M 178.839844 131.804688 L 195.296875 141.738281 L 185.171875 158.511719 L 168.714844 148.582031 Z M 178.839844 131.804688 " fill-opacity="1" fill-rule="nonzero"/></g></g></g><g clip-path="url(#88bf96f59e)"><g clip-path="url(#4cff083710)"><g clip-path="url(#8ccf9dbea7)"><path fill="#ffffff" d="M 197.007812 133.59375 L 213.445312 143.515625 L 204.40625 158.492188 L 187.96875 148.570312 Z M 197.007812 133.59375 " fill-opacity="1" fill-rule="nonzero"/></g></g></g><path stroke-linecap="butt" transform="matrix(0.431053, -0.613753, 0.613753, 0.431053, 162.46394, 183.096742)" fill="none" stroke-linejoin="miter" d="M 0.000822678 1.000125 L 116.884887 0.999427 " stroke="#3d3b3a" stroke-width="2" stroke-opacity="1" stroke-miterlimit="4"/><g fill="#3d3b3a" fill-opacity="1"><g transform="translate(111.178474, 262.353315)"><g><path d="M 2.421875 0.15625 C 1.734375 0.15625 1.085938 0.0078125 0.484375 -0.28125 C 0.398438 -0.332031 0.378906 -0.410156 0.421875 -0.515625 L 0.8125 -2.296875 C 0.8125 -2.335938 0.832031 -2.359375 0.875 -2.359375 C 0.925781 -2.359375 0.957031 -2.335938 0.96875 -2.296875 C 1.28125 -0.867188 1.875 -0.15625 2.75 -0.15625 C 3.164062 -0.15625 3.5 -0.296875 3.75 -0.578125 C 4.007812 -0.867188 4.140625 -1.253906 4.140625 -1.734375 C 4.140625 -2.140625 4.023438 -2.488281 3.796875 -2.78125 C 3.566406 -3.070312 3.234375 -3.382812 2.796875 -3.71875 C 2.472656 -3.96875 2.21875 -4.175781 2.03125 -4.34375 C 1.851562 -4.507812 1.703125 -4.703125 1.578125 -4.921875 C 1.453125 -5.148438 1.390625 -5.40625 1.390625 -5.6875 C 1.390625 -5.800781 1.398438 -5.921875 1.421875 -6.046875 C 1.554688 -6.679688 1.890625 -7.164062 2.421875 -7.5 C 2.953125 -7.832031 3.550781 -8 4.21875 -8 C 4.71875 -8 5.210938 -7.898438 5.703125 -7.703125 C 5.828125 -7.640625 5.875 -7.566406 5.84375 -7.484375 L 5.65625 -5.84375 C 5.644531 -5.820312 5.617188 -5.8125 5.578125 -5.8125 C 5.546875 -5.8125 5.523438 -5.820312 5.515625 -5.84375 C 5.390625 -6.4375 5.175781 -6.898438 4.875 -7.234375 C 4.582031 -7.566406 4.253906 -7.734375 3.890625 -7.734375 C 3.597656 -7.734375 3.359375 -7.65625 3.171875 -7.5 C 2.992188 -7.34375 2.863281 -7.15625 2.78125 -6.9375 C 2.695312 -6.726562 2.65625 -6.523438 2.65625 -6.328125 C 2.65625 -6.078125 2.710938 -5.847656 2.828125 -5.640625 C 2.941406 -5.441406 3.078125 -5.269531 3.234375 -5.125 C 3.398438 -4.976562 3.644531 -4.78125 3.96875 -4.53125 C 4.457031 -4.144531 4.832031 -3.789062 5.09375 -3.46875 C 5.351562 -3.15625 5.484375 -2.78125 5.484375 -2.34375 C 5.484375 -2.195312 5.472656 -2.085938 5.453125 -2.015625 C 5.335938 -1.378906 5.015625 -0.859375 4.484375 -0.453125 C 3.960938 -0.046875 3.273438 0.15625 2.421875 0.15625 Z M 2.421875 0.15625 "/></g></g></g><g fill="#3d3b3a" fill-opacity="1"><g transform="translate(120.860471, 262.353315)"><g><path d="M 1.984375 0.171875 C 1.429688 0.171875 1.007812 -0.00390625 0.71875 -0.359375 C 0.4375 -0.710938 0.296875 -1.175781 0.296875 -1.75 C 0.296875 -2 0.316406 -2.222656 0.359375 -2.421875 C 0.441406 -2.929688 0.617188 -3.378906 0.890625 -3.765625 C 1.171875 -4.160156 1.503906 -4.46875 1.890625 -4.6875 C 2.273438 -4.90625 2.6875 -5.015625 3.125 -5.015625 C 3.6875 -5.015625 4.117188 -4.84375 4.421875 -4.5 C 4.722656 -4.164062 4.875 -3.710938 4.875 -3.140625 C 4.875 -2.921875 4.847656 -2.679688 4.796875 -2.421875 C 4.679688 -1.867188 4.476562 -1.394531 4.1875 -1 C 3.90625 -0.613281 3.566406 -0.320312 3.171875 -0.125 C 2.785156 0.0703125 2.390625 0.171875 1.984375 0.171875 Z M 2.421875 -0.140625 C 2.679688 -0.140625 2.910156 -0.289062 3.109375 -0.59375 C 3.304688 -0.90625 3.453125 -1.332031 3.546875 -1.875 C 3.609375 -2.195312 3.640625 -2.53125 3.640625 -2.875 C 3.640625 -3.414062 3.554688 -3.859375 3.390625 -4.203125 C 3.222656 -4.546875 3 -4.71875 2.71875 -4.71875 C 2.46875 -4.71875 2.242188 -4.570312 2.046875 -4.28125 C 1.847656 -3.988281 1.695312 -3.550781 1.59375 -2.96875 C 1.539062 -2.644531 1.515625 -2.3125 1.515625 -1.96875 C 1.515625 -1.425781 1.59375 -0.984375 1.75 -0.640625 C 1.90625 -0.304688 2.128906 -0.140625 2.421875 -0.140625 Z M 2.421875 -0.140625 "/></g></g></g><g fill="#3d3b3a" fill-opacity="1"><g transform="translate(129.763175, 262.353315)"><g><path d="M 4.078125 -9.125 C 4.421875 -9.125 4.691406 -9.0625 4.890625 -8.9375 C 5.085938 -8.820312 5.1875 -8.671875 5.1875 -8.484375 C 5.1875 -8.304688 5.128906 -8.160156 5.015625 -8.046875 C 4.898438 -7.941406 4.753906 -7.890625 4.578125 -7.890625 C 4.335938 -7.890625 4.175781 -7.941406 4.09375 -8.046875 C 4.019531 -8.160156 3.972656 -8.304688 3.953125 -8.484375 C 3.921875 -8.609375 3.890625 -8.703125 3.859375 -8.765625 C 3.828125 -8.835938 3.765625 -8.875 3.671875 -8.875 C 3.398438 -8.875 3.171875 -8.601562 2.984375 -8.0625 C 2.796875 -7.519531 2.617188 -6.671875 2.453125 -5.515625 L 2.34375 -4.78125 C 2.675781 -4.800781 2.914062 -4.816406 3.0625 -4.828125 L 3.53125 -4.859375 C 3.5625 -4.859375 3.585938 -4.835938 3.609375 -4.796875 C 3.628906 -4.765625 3.632812 -4.734375 3.625 -4.703125 C 3.59375 -4.617188 3.535156 -4.523438 3.453125 -4.421875 C 3.367188 -4.316406 3.289062 -4.265625 3.21875 -4.265625 C 3.195312 -4.265625 3.09375 -4.28125 2.90625 -4.3125 C 2.726562 -4.34375 2.523438 -4.367188 2.296875 -4.390625 L 1.59375 0.265625 C 1.476562 1.078125 1.332031 1.710938 1.15625 2.171875 C 0.988281 2.640625 0.78125 2.96875 0.53125 3.15625 C 0.28125 3.351562 -0.0390625 3.453125 -0.4375 3.453125 C -0.78125 3.453125 -1.050781 3.390625 -1.25 3.265625 C -1.457031 3.148438 -1.5625 3 -1.5625 2.8125 C -1.5625 2.632812 -1.503906 2.492188 -1.390625 2.390625 C -1.273438 2.285156 -1.140625 2.234375 -0.984375 2.234375 C -0.773438 2.234375 -0.632812 2.285156 -0.5625 2.390625 C -0.5 2.492188 -0.453125 2.640625 -0.421875 2.828125 C -0.390625 2.960938 -0.359375 3.054688 -0.328125 3.109375 C -0.304688 3.171875 -0.25 3.203125 -0.15625 3.203125 C -0.0703125 3.203125 -0.00390625 3.132812 0.046875 3 C 0.0976562 2.875 0.15625 2.644531 0.21875 2.3125 C 0.28125 1.976562 0.367188 1.40625 0.484375 0.59375 L 1.125 -3.84375 C 1.144531 -3.9375 1.15625 -4.046875 1.15625 -4.171875 C 1.15625 -4.328125 1.113281 -4.421875 1.03125 -4.453125 C 0.945312 -4.492188 0.773438 -4.515625 0.515625 -4.515625 C 0.492188 -4.515625 0.484375 -4.546875 0.484375 -4.609375 C 0.484375 -4.679688 0.492188 -4.71875 0.515625 -4.71875 C 0.796875 -4.71875 0.992188 -4.753906 1.109375 -4.828125 C 1.222656 -4.898438 1.296875 -5.039062 1.328125 -5.25 C 1.492188 -6.289062 1.6875 -7.082031 1.90625 -7.625 C 2.132812 -8.175781 2.414062 -8.5625 2.75 -8.78125 C 3.082031 -9.007812 3.523438 -9.125 4.078125 -9.125 Z M 4.078125 -9.125 "/></g></g></g><g fill="#3d3b3a" fill-opacity="1"><g transform="translate(136.90619, 262.353315)"><g><path d="M 3.828125 -4.859375 C 3.878906 -4.859375 3.90625 -4.816406 3.90625 -4.734375 C 3.90625 -4.671875 3.859375 -4.570312 3.765625 -4.4375 C 3.671875 -4.300781 3.582031 -4.234375 3.5 -4.234375 C 3.46875 -4.234375 3.328125 -4.253906 3.078125 -4.296875 C 2.835938 -4.335938 2.5625 -4.367188 2.25 -4.390625 L 1.71875 -1.390625 C 1.707031 -1.253906 1.703125 -1.164062 1.703125 -1.125 C 1.703125 -0.914062 1.753906 -0.765625 1.859375 -0.671875 C 1.960938 -0.585938 2.125 -0.546875 2.34375 -0.546875 C 2.65625 -0.546875 3.003906 -0.695312 3.390625 -1 L 3.40625 -1 C 3.4375 -1 3.460938 -0.988281 3.484375 -0.96875 C 3.515625 -0.945312 3.519531 -0.921875 3.5 -0.890625 C 3.113281 -0.523438 2.769531 -0.257812 2.46875 -0.09375 C 2.175781 0.0703125 1.878906 0.15625 1.578125 0.15625 C 0.898438 0.15625 0.5625 -0.148438 0.5625 -0.765625 C 0.5625 -0.890625 0.578125 -1.03125 0.609375 -1.1875 L 1.09375 -3.84375 C 1.113281 -3.988281 1.125 -4.109375 1.125 -4.203125 C 1.125 -4.328125 1.09375 -4.410156 1.03125 -4.453125 C 0.96875 -4.492188 0.847656 -4.515625 0.671875 -4.515625 C 0.640625 -4.515625 0.625 -4.546875 0.625 -4.609375 C 0.625 -4.679688 0.640625 -4.71875 0.671875 -4.71875 C 1.335938 -4.71875 1.867188 -5.085938 2.265625 -5.828125 C 2.285156 -5.847656 2.316406 -5.859375 2.359375 -5.859375 C 2.398438 -5.859375 2.4375 -5.847656 2.46875 -5.828125 C 2.5 -5.816406 2.507812 -5.800781 2.5 -5.78125 L 2.3125 -4.75 C 2.550781 -4.757812 2.753906 -4.769531 2.921875 -4.78125 C 3.085938 -4.800781 3.226562 -4.8125 3.34375 -4.8125 C 3.5625 -4.84375 3.722656 -4.859375 3.828125 -4.859375 Z M 3.828125 -4.859375 "/></g></g></g><g fill="#3d3b3a" fill-opacity="1"><g transform="translate(144.463992, 262.353315)"><g><path d="M 6.796875 -4.984375 C 7.015625 -4.984375 7.179688 -4.90625 7.296875 -4.75 C 7.410156 -4.601562 7.46875 -4.335938 7.46875 -3.953125 C 7.46875 -3.722656 7.460938 -3.535156 7.453125 -3.390625 C 7.390625 -2.773438 7.222656 -2.191406 6.953125 -1.640625 C 6.691406 -1.085938 6.367188 -0.648438 5.984375 -0.328125 C 5.609375 -0.00390625 5.234375 0.15625 4.859375 0.15625 C 4.390625 0.15625 4.035156 -0.0976562 3.796875 -0.609375 C 3.328125 -0.0976562 2.851562 0.15625 2.375 0.15625 C 2 0.15625 1.707031 0.0390625 1.5 -0.1875 C 1.289062 -0.425781 1.1875 -0.757812 1.1875 -1.1875 C 1.1875 -1.320312 1.203125 -1.472656 1.234375 -1.640625 C 1.328125 -2.203125 1.582031 -2.835938 2 -3.546875 C 2.070312 -3.660156 2.109375 -3.75 2.109375 -3.8125 C 2.109375 -3.875 2.0625 -3.90625 1.96875 -3.90625 L 1.359375 -3.90625 C 1.066406 -3.90625 0.851562 -3.859375 0.71875 -3.765625 C 0.582031 -3.679688 0.484375 -3.546875 0.421875 -3.359375 C 0.398438 -3.328125 0.375 -3.3125 0.34375 -3.3125 C 0.3125 -3.3125 0.285156 -3.316406 0.265625 -3.328125 C 0.253906 -3.347656 0.253906 -3.367188 0.265625 -3.390625 C 0.398438 -3.785156 0.519531 -4.082031 0.625 -4.28125 C 0.726562 -4.488281 0.851562 -4.640625 1 -4.734375 C 1.144531 -4.828125 1.335938 -4.875 1.578125 -4.875 L 2.75 -4.875 C 2.84375 -4.875 2.890625 -4.851562 2.890625 -4.8125 C 2.890625 -4.789062 2.878906 -4.757812 2.859375 -4.71875 C 2.679688 -4.300781 2.519531 -3.878906 2.375 -3.453125 C 2.226562 -3.023438 2.132812 -2.664062 2.09375 -2.375 C 2.070312 -2.28125 2.0625 -2.15625 2.0625 -2 C 2.0625 -1.632812 2.144531 -1.34375 2.3125 -1.125 C 2.488281 -0.914062 2.71875 -0.8125 3 -0.8125 C 3.21875 -0.8125 3.429688 -0.894531 3.640625 -1.0625 C 3.585938 -1.320312 3.5625 -1.640625 3.5625 -2.015625 C 3.5625 -2.429688 3.59375 -2.828125 3.65625 -3.203125 C 3.769531 -3.796875 3.914062 -4.234375 4.09375 -4.515625 C 4.269531 -4.796875 4.484375 -4.9375 4.734375 -4.9375 C 5.078125 -4.9375 5.25 -4.691406 5.25 -4.203125 C 5.25 -4.054688 5.238281 -3.890625 5.21875 -3.703125 C 5.15625 -3.296875 5.050781 -2.890625 4.90625 -2.484375 C 4.769531 -2.085938 4.597656 -1.71875 4.390625 -1.375 C 4.671875 -1 5.03125 -0.8125 5.46875 -0.8125 C 5.800781 -0.8125 6.097656 -0.96875 6.359375 -1.28125 C 6.617188 -1.59375 6.78125 -2 6.84375 -2.5 C 6.851562 -2.5625 6.859375 -2.644531 6.859375 -2.75 C 6.859375 -2.957031 6.820312 -3.128906 6.75 -3.265625 C 6.6875 -3.398438 6.578125 -3.550781 6.421875 -3.71875 C 6.316406 -3.84375 6.234375 -3.953125 6.171875 -4.046875 C 6.117188 -4.140625 6.09375 -4.242188 6.09375 -4.359375 C 6.09375 -4.566406 6.15625 -4.722656 6.28125 -4.828125 C 6.414062 -4.929688 6.585938 -4.984375 6.796875 -4.984375 Z M 3.96875 -3.296875 C 3.9375 -3.160156 3.921875 -3.015625 3.921875 -2.859375 C 3.921875 -2.453125 4.007812 -2.066406 4.1875 -1.703125 C 4.363281 -1.960938 4.507812 -2.242188 4.625 -2.546875 C 4.738281 -2.847656 4.796875 -3.117188 4.796875 -3.359375 C 4.796875 -3.660156 4.671875 -3.8125 4.421875 -3.8125 C 4.316406 -3.8125 4.222656 -3.769531 4.140625 -3.6875 C 4.066406 -3.613281 4.007812 -3.484375 3.96875 -3.296875 Z M 3.96875 -3.296875 "/></g></g></g><g fill="#3d3b3a" fill-opacity="1"><g transform="translate(156.131926, 262.353315)"><g><path d="M 5.21875 -0.96875 C 5.226562 -0.976562 5.238281 -0.984375 5.25 -0.984375 C 5.28125 -0.984375 5.300781 -0.96875 5.3125 -0.9375 C 5.332031 -0.90625 5.335938 -0.882812 5.328125 -0.875 C 4.785156 -0.21875 4.3125 0.109375 3.90625 0.109375 C 3.6875 0.109375 3.523438 0.0507812 3.421875 -0.0625 C 3.328125 -0.1875 3.28125 -0.378906 3.28125 -0.640625 C 3.28125 -0.785156 3.296875 -0.945312 3.328125 -1.125 L 3.46875 -1.96875 C 3.15625 -1.300781 2.773438 -0.78125 2.328125 -0.40625 C 1.890625 -0.03125 1.460938 0.15625 1.046875 0.15625 C 0.785156 0.15625 0.578125 0.078125 0.421875 -0.078125 C 0.273438 -0.234375 0.203125 -0.472656 0.203125 -0.796875 C 0.203125 -1.359375 0.390625 -1.972656 0.765625 -2.640625 C 1.140625 -3.304688 1.597656 -3.867188 2.140625 -4.328125 C 2.691406 -4.785156 3.210938 -5.015625 3.703125 -5.015625 C 3.847656 -5.015625 4.003906 -4.988281 4.171875 -4.9375 C 4.335938 -4.882812 4.476562 -4.800781 4.59375 -4.6875 C 4.75 -4.8125 4.878906 -4.957031 4.984375 -5.125 C 4.992188 -5.132812 5.007812 -5.140625 5.03125 -5.140625 C 5.050781 -5.140625 5.070312 -5.128906 5.09375 -5.109375 C 5.125 -5.097656 5.132812 -5.085938 5.125 -5.078125 L 4.40625 -1.125 C 4.375 -1.007812 4.359375 -0.910156 4.359375 -0.828125 C 4.359375 -0.628906 4.421875 -0.53125 4.546875 -0.53125 C 4.703125 -0.53125 4.925781 -0.675781 5.21875 -0.96875 Z M 1.84375 -0.75 C 2.09375 -0.75 2.347656 -0.878906 2.609375 -1.140625 C 2.878906 -1.410156 3.113281 -1.734375 3.3125 -2.109375 C 3.507812 -2.492188 3.640625 -2.851562 3.703125 -3.1875 C 3.722656 -3.320312 3.734375 -3.445312 3.734375 -3.5625 C 3.734375 -3.832031 3.671875 -4.039062 3.546875 -4.1875 C 3.429688 -4.332031 3.265625 -4.40625 3.046875 -4.40625 C 2.660156 -4.40625 2.316406 -4.195312 2.015625 -3.78125 C 1.722656 -3.363281 1.515625 -2.820312 1.390625 -2.15625 C 1.347656 -1.894531 1.328125 -1.695312 1.328125 -1.5625 C 1.328125 -1.28125 1.375 -1.070312 1.46875 -0.9375 C 1.5625 -0.8125 1.6875 -0.75 1.84375 -0.75 Z M 1.84375 -0.75 "/></g></g></g><g fill="#3d3b3a" fill-opacity="1"><g transform="translate(165.487128, 262.353315)"><g><path d="M 3.734375 -4.96875 C 3.953125 -4.96875 4.160156 -4.882812 4.359375 -4.71875 C 4.554688 -4.5625 4.640625 -4.382812 4.609375 -4.1875 C 4.585938 -4.0625 4.523438 -3.941406 4.421875 -3.828125 C 4.328125 -3.722656 4.203125 -3.671875 4.046875 -3.671875 C 3.898438 -3.671875 3.738281 -3.742188 3.5625 -3.890625 C 3.5 -3.929688 3.4375 -3.96875 3.375 -4 C 3.320312 -4.03125 3.265625 -4.046875 3.203125 -4.046875 C 3.066406 -4.046875 2.890625 -3.820312 2.671875 -3.375 C 2.460938 -2.9375 2.265625 -2.410156 2.078125 -1.796875 C 1.890625 -1.179688 1.753906 -0.632812 1.671875 -0.15625 C 1.648438 -0.0703125 1.582031 -0.0078125 1.46875 0.03125 C 1.351562 0.0703125 1.1875 0.09375 0.96875 0.09375 C 0.6875 0.09375 0.546875 0.0625 0.546875 0 C 0.554688 -0.0625 0.582031 -0.1875 0.625 -0.375 C 0.675781 -0.570312 0.71875 -0.757812 0.75 -0.9375 L 1.265625 -3.734375 C 1.285156 -3.867188 1.296875 -3.957031 1.296875 -4 C 1.296875 -4.238281 1.21875 -4.359375 1.0625 -4.359375 C 0.894531 -4.359375 0.660156 -4.1875 0.359375 -3.84375 C 0.347656 -3.84375 0.332031 -3.84375 0.3125 -3.84375 C 0.28125 -3.84375 0.253906 -3.851562 0.234375 -3.875 C 0.222656 -3.90625 0.226562 -3.9375 0.25 -3.96875 C 0.550781 -4.3125 0.820312 -4.5625 1.0625 -4.71875 C 1.300781 -4.882812 1.539062 -4.96875 1.78125 -4.96875 C 1.988281 -4.96875 2.140625 -4.910156 2.234375 -4.796875 C 2.328125 -4.679688 2.375 -4.515625 2.375 -4.296875 C 2.375 -4.171875 2.363281 -4.035156 2.34375 -3.890625 L 2.09375 -2.5 C 2.582031 -4.144531 3.128906 -4.96875 3.734375 -4.96875 Z M 3.734375 -4.96875 "/></g></g></g><g fill="#3d3b3a" fill-opacity="1"><g transform="translate(173.736237, 262.353315)"><g><path d="M 3.390625 -5.015625 C 3.710938 -5.015625 3.960938 -4.957031 4.140625 -4.84375 C 4.316406 -4.738281 4.40625 -4.59375 4.40625 -4.40625 C 4.40625 -4.03125 4.125 -3.675781 3.5625 -3.34375 C 3.007812 -3.007812 2.335938 -2.765625 1.546875 -2.609375 C 1.523438 -2.429688 1.515625 -2.253906 1.515625 -2.078125 C 1.515625 -1.578125 1.617188 -1.171875 1.828125 -0.859375 C 2.035156 -0.554688 2.34375 -0.40625 2.75 -0.40625 C 2.925781 -0.40625 3.117188 -0.4375 3.328125 -0.5 C 3.535156 -0.5625 3.722656 -0.660156 3.890625 -0.796875 L 3.90625 -0.796875 C 3.925781 -0.796875 3.945312 -0.78125 3.96875 -0.75 C 3.988281 -0.726562 3.988281 -0.707031 3.96875 -0.6875 C 3.664062 -0.394531 3.347656 -0.179688 3.015625 -0.046875 C 2.679688 0.0859375 2.347656 0.15625 2.015625 0.15625 C 1.429688 0.15625 0.992188 -0.0195312 0.703125 -0.375 C 0.421875 -0.726562 0.28125 -1.171875 0.28125 -1.703125 C 0.28125 -1.890625 0.300781 -2.097656 0.34375 -2.328125 C 0.425781 -2.773438 0.609375 -3.203125 0.890625 -3.609375 C 1.179688 -4.023438 1.546875 -4.363281 1.984375 -4.625 C 2.421875 -4.882812 2.890625 -5.015625 3.390625 -5.015625 Z M 3.125 -4.078125 C 3.132812 -4.109375 3.140625 -4.15625 3.140625 -4.21875 C 3.140625 -4.363281 3.101562 -4.472656 3.03125 -4.546875 C 2.96875 -4.628906 2.867188 -4.671875 2.734375 -4.671875 C 2.472656 -4.671875 2.238281 -4.5 2.03125 -4.15625 C 1.820312 -3.8125 1.671875 -3.363281 1.578125 -2.8125 C 2.535156 -3.0625 3.050781 -3.484375 3.125 -4.078125 Z M 3.125 -4.078125 "/></g></g></g><g fill="#3d3b3a" fill-opacity="1"><g transform="translate(181.99791, 262.353315)"><g/></g></g><g fill="#3d3b3a" fill-opacity="1"><g transform="translate(188.713568, 262.353315)"><g><path d="M 3.15625 0.046875 C 2.957031 0.046875 2.722656 0.0351562 2.453125 0.015625 C 2.347656 0.00390625 2.21875 -0.00390625 2.0625 -0.015625 C 1.914062 -0.0234375 1.75 -0.03125 1.5625 -0.03125 L 0.734375 -0.015625 C 0.597656 -0.00390625 0.40625 0 0.15625 0 C 0.132812 0 0.125 -0.0234375 0.125 -0.078125 C 0.125 -0.128906 0.132812 -0.15625 0.15625 -0.15625 C 0.394531 -0.15625 0.570312 -0.175781 0.6875 -0.21875 C 0.800781 -0.257812 0.882812 -0.335938 0.9375 -0.453125 C 1 -0.566406 1.054688 -0.753906 1.109375 -1.015625 L 2.140625 -6.84375 C 2.171875 -7.0625 2.1875 -7.195312 2.1875 -7.25 C 2.1875 -7.425781 2.132812 -7.546875 2.03125 -7.609375 C 1.9375 -7.671875 1.765625 -7.703125 1.515625 -7.703125 C 1.492188 -7.703125 1.484375 -7.726562 1.484375 -7.78125 C 1.484375 -7.832031 1.492188 -7.859375 1.515625 -7.859375 L 2.09375 -7.84375 C 2.4375 -7.832031 2.71875 -7.828125 2.9375 -7.828125 C 3.164062 -7.828125 3.40625 -7.835938 3.65625 -7.859375 C 3.988281 -7.878906 4.234375 -7.890625 4.390625 -7.890625 C 5.097656 -7.890625 5.710938 -7.757812 6.234375 -7.5 C 6.765625 -7.25 7.171875 -6.890625 7.453125 -6.421875 C 7.734375 -5.953125 7.875 -5.414062 7.875 -4.8125 C 7.875 -4.53125 7.851562 -4.28125 7.8125 -4.0625 C 7.664062 -3.257812 7.351562 -2.546875 6.875 -1.921875 C 6.40625 -1.296875 5.835938 -0.8125 5.171875 -0.46875 C 4.515625 -0.125 3.84375 0.046875 3.15625 0.046875 Z M 3.109375 -0.203125 C 3.910156 -0.203125 4.609375 -0.515625 5.203125 -1.140625 C 5.796875 -1.773438 6.191406 -2.65625 6.390625 -3.78125 C 6.453125 -4.113281 6.484375 -4.46875 6.484375 -4.84375 C 6.484375 -5.65625 6.304688 -6.320312 5.953125 -6.84375 C 5.597656 -7.375 5.039062 -7.640625 4.28125 -7.640625 C 3.976562 -7.640625 3.765625 -7.578125 3.640625 -7.453125 C 3.515625 -7.328125 3.425781 -7.113281 3.375 -6.8125 L 2.359375 -1.15625 C 2.335938 -1.019531 2.328125 -0.90625 2.328125 -0.8125 C 2.328125 -0.59375 2.382812 -0.4375 2.5 -0.34375 C 2.613281 -0.25 2.816406 -0.203125 3.109375 -0.203125 Z M 3.109375 -0.203125 "/></g></g></g><g fill="#3d3b3a" fill-opacity="1"><g transform="translate(200.482064, 262.353315)"><g><path d="M 3.390625 -5.015625 C 3.710938 -5.015625 3.960938 -4.957031 4.140625 -4.84375 C 4.316406 -4.738281 4.40625 -4.59375 4.40625 -4.40625 C 4.40625 -4.03125 4.125 -3.675781 3.5625 -3.34375 C 3.007812 -3.007812 2.335938 -2.765625 1.546875 -2.609375 C 1.523438 -2.429688 1.515625 -2.253906 1.515625 -2.078125 C 1.515625 -1.578125 1.617188 -1.171875 1.828125 -0.859375 C 2.035156 -0.554688 2.34375 -0.40625 2.75 -0.40625 C 2.925781 -0.40625 3.117188 -0.4375 3.328125 -0.5 C 3.535156 -0.5625 3.722656 -0.660156 3.890625 -0.796875 L 3.90625 -0.796875 C 3.925781 -0.796875 3.945312 -0.78125 3.96875 -0.75 C 3.988281 -0.726562 3.988281 -0.707031 3.96875 -0.6875 C 3.664062 -0.394531 3.347656 -0.179688 3.015625 -0.046875 C 2.679688 0.0859375 2.347656 0.15625 2.015625 0.15625 C 1.429688 0.15625 0.992188 -0.0195312 0.703125 -0.375 C 0.421875 -0.726562 0.28125 -1.171875 0.28125 -1.703125 C 0.28125 -1.890625 0.300781 -2.097656 0.34375 -2.328125 C 0.425781 -2.773438 0.609375 -3.203125 0.890625 -3.609375 C 1.179688 -4.023438 1.546875 -4.363281 1.984375 -4.625 C 2.421875 -4.882812 2.890625 -5.015625 3.390625 -5.015625 Z M 3.125 -4.078125 C 3.132812 -4.109375 3.140625 -4.15625 3.140625 -4.21875 C 3.140625 -4.363281 3.101562 -4.472656 3.03125 -4.546875 C 2.96875 -4.628906 2.867188 -4.671875 2.734375 -4.671875 C 2.472656 -4.671875 2.238281 -4.5 2.03125 -4.15625 C 1.820312 -3.8125 1.671875 -3.363281 1.578125 -2.8125 C 2.535156 -3.0625 3.050781 -3.484375 3.125 -4.078125 Z M 3.125 -4.078125 "/></g></g></g><g fill="#3d3b3a" fill-opacity="1"><g transform="translate(208.743737, 262.353315)"><g><path d="M 2.375 0.15625 C 2.007812 0.15625 1.695312 0.0195312 1.4375 -0.25 C 1.1875 -0.53125 1.0625 -0.863281 1.0625 -1.25 C 1.0625 -1.476562 1.109375 -1.710938 1.203125 -1.953125 C 1.304688 -2.191406 1.457031 -2.5 1.65625 -2.875 C 1.832031 -3.21875 1.945312 -3.441406 2 -3.546875 C 2.0625 -3.679688 2.09375 -3.769531 2.09375 -3.8125 C 2.09375 -3.875 2.050781 -3.90625 1.96875 -3.90625 L 1.359375 -3.90625 C 1.066406 -3.90625 0.851562 -3.859375 0.71875 -3.765625 C 0.582031 -3.679688 0.484375 -3.546875 0.421875 -3.359375 C 0.398438 -3.328125 0.375 -3.3125 0.34375 -3.3125 C 0.3125 -3.3125 0.285156 -3.316406 0.265625 -3.328125 C 0.253906 -3.347656 0.253906 -3.367188 0.265625 -3.390625 C 0.398438 -3.785156 0.519531 -4.082031 0.625 -4.28125 C 0.726562 -4.488281 0.851562 -4.640625 1 -4.734375 C 1.144531 -4.828125 1.335938 -4.875 1.578125 -4.875 L 2.75 -4.875 C 2.84375 -4.875 2.890625 -4.851562 2.890625 -4.8125 C 2.890625 -4.789062 2.878906 -4.757812 2.859375 -4.71875 C 2.679688 -4.300781 2.519531 -3.878906 2.375 -3.453125 C 2.226562 -3.023438 2.132812 -2.664062 2.09375 -2.375 C 2.070312 -2.28125 2.0625 -2.15625 2.0625 -2 C 2.0625 -1.632812 2.144531 -1.34375 2.3125 -1.125 C 2.488281 -0.914062 2.71875 -0.8125 3 -0.8125 C 3.238281 -0.8125 3.46875 -0.878906 3.6875 -1.015625 C 3.914062 -1.160156 4.113281 -1.359375 4.28125 -1.609375 C 4.445312 -1.867188 4.550781 -2.164062 4.59375 -2.5 C 4.601562 -2.5625 4.609375 -2.644531 4.609375 -2.75 C 4.609375 -2.957031 4.570312 -3.128906 4.5 -3.265625 C 4.4375 -3.398438 4.328125 -3.550781 4.171875 -3.71875 C 4.066406 -3.84375 3.984375 -3.953125 3.921875 -4.046875 C 3.867188 -4.140625 3.84375 -4.242188 3.84375 -4.359375 C 3.84375 -4.566406 3.90625 -4.722656 4.03125 -4.828125 C 4.164062 -4.929688 4.335938 -4.984375 4.546875 -4.984375 C 4.765625 -4.984375 4.929688 -4.90625 5.046875 -4.75 C 5.160156 -4.601562 5.21875 -4.335938 5.21875 -3.953125 C 5.21875 -3.722656 5.207031 -3.535156 5.1875 -3.390625 C 5.132812 -2.773438 4.957031 -2.191406 4.65625 -1.640625 C 4.363281 -1.085938 4.007812 -0.648438 3.59375 -0.328125 C 3.1875 -0.00390625 2.78125 0.15625 2.375 0.15625 Z M 2.375 0.15625 "/></g></g></g><g fill="#3d3b3a" fill-opacity="1"><g transform="translate(218.149207, 262.353315)"><g><path d="M 3.390625 -5.015625 C 3.710938 -5.015625 3.960938 -4.957031 4.140625 -4.84375 C 4.316406 -4.738281 4.40625 -4.59375 4.40625 -4.40625 C 4.40625 -4.03125 4.125 -3.675781 3.5625 -3.34375 C 3.007812 -3.007812 2.335938 -2.765625 1.546875 -2.609375 C 1.523438 -2.429688 1.515625 -2.253906 1.515625 -2.078125 C 1.515625 -1.578125 1.617188 -1.171875 1.828125 -0.859375 C 2.035156 -0.554688 2.34375 -0.40625 2.75 -0.40625 C 2.925781 -0.40625 3.117188 -0.4375 3.328125 -0.5 C 3.535156 -0.5625 3.722656 -0.660156 3.890625 -0.796875 L 3.90625 -0.796875 C 3.925781 -0.796875 3.945312 -0.78125 3.96875 -0.75 C 3.988281 -0.726562 3.988281 -0.707031 3.96875 -0.6875 C 3.664062 -0.394531 3.347656 -0.179688 3.015625 -0.046875 C 2.679688 0.0859375 2.347656 0.15625 2.015625 0.15625 C 1.429688 0.15625 0.992188 -0.0195312 0.703125 -0.375 C 0.421875 -0.726562 0.28125 -1.171875 0.28125 -1.703125 C 0.28125 -1.890625 0.300781 -2.097656 0.34375 -2.328125 C 0.425781 -2.773438 0.609375 -3.203125 0.890625 -3.609375 C 1.179688 -4.023438 1.546875 -4.363281 1.984375 -4.625 C 2.421875 -4.882812 2.890625 -5.015625 3.390625 -5.015625 Z M 3.125 -4.078125 C 3.132812 -4.109375 3.140625 -4.15625 3.140625 -4.21875 C 3.140625 -4.363281 3.101562 -4.472656 3.03125 -4.546875 C 2.96875 -4.628906 2.867188 -4.671875 2.734375 -4.671875 C 2.472656 -4.671875 2.238281 -4.5 2.03125 -4.15625 C 1.820312 -3.8125 1.671875 -3.363281 1.578125 -2.8125 C 2.535156 -3.0625 3.050781 -3.484375 3.125 -4.078125 Z M 3.125 -4.078125 "/></g></g></g><g fill="#3d3b3a" fill-opacity="1"><g transform="translate(226.410879, 262.353315)"><g><path d="M 1.1875 0.109375 C 0.78125 0.109375 0.578125 -0.128906 0.578125 -0.609375 C 0.578125 -0.773438 0.59375 -0.945312 0.625 -1.125 L 1.78125 -7.40625 C 1.8125 -7.570312 1.828125 -7.710938 1.828125 -7.828125 C 1.828125 -8.066406 1.742188 -8.1875 1.578125 -8.1875 C 1.484375 -8.1875 1.3125 -8.128906 1.0625 -8.015625 L 1.046875 -8.015625 C 1.003906 -8.015625 0.976562 -8.035156 0.96875 -8.078125 C 0.957031 -8.128906 0.96875 -8.15625 1 -8.15625 L 2.953125 -9.125 L 2.984375 -9.125 C 3.015625 -9.125 3.046875 -9.109375 3.078125 -9.078125 C 3.109375 -9.054688 3.117188 -9.035156 3.109375 -9.015625 L 1.703125 -1.125 C 1.671875 -1 1.65625 -0.894531 1.65625 -0.8125 C 1.65625 -0.625 1.71875 -0.53125 1.84375 -0.53125 C 1.925781 -0.53125 2.019531 -0.566406 2.125 -0.640625 C 2.238281 -0.710938 2.367188 -0.820312 2.515625 -0.96875 C 2.535156 -0.988281 2.550781 -1 2.5625 -1 C 2.59375 -1 2.613281 -0.984375 2.625 -0.953125 C 2.644531 -0.921875 2.640625 -0.894531 2.609375 -0.875 C 2.328125 -0.53125 2.078125 -0.28125 1.859375 -0.125 C 1.640625 0.03125 1.414062 0.109375 1.1875 0.109375 Z M 1.1875 0.109375 "/></g></g></g><g fill="#3d3b3a" fill-opacity="1"><g transform="translate(233.289937, 262.353315)"><g><path d="M 1.984375 0.171875 C 1.429688 0.171875 1.007812 -0.00390625 0.71875 -0.359375 C 0.4375 -0.710938 0.296875 -1.175781 0.296875 -1.75 C 0.296875 -2 0.316406 -2.222656 0.359375 -2.421875 C 0.441406 -2.929688 0.617188 -3.378906 0.890625 -3.765625 C 1.171875 -4.160156 1.503906 -4.46875 1.890625 -4.6875 C 2.273438 -4.90625 2.6875 -5.015625 3.125 -5.015625 C 3.6875 -5.015625 4.117188 -4.84375 4.421875 -4.5 C 4.722656 -4.164062 4.875 -3.710938 4.875 -3.140625 C 4.875 -2.921875 4.847656 -2.679688 4.796875 -2.421875 C 4.679688 -1.867188 4.476562 -1.394531 4.1875 -1 C 3.90625 -0.613281 3.566406 -0.320312 3.171875 -0.125 C 2.785156 0.0703125 2.390625 0.171875 1.984375 0.171875 Z M 2.421875 -0.140625 C 2.679688 -0.140625 2.910156 -0.289062 3.109375 -0.59375 C 3.304688 -0.90625 3.453125 -1.332031 3.546875 -1.875 C 3.609375 -2.195312 3.640625 -2.53125 3.640625 -2.875 C 3.640625 -3.414062 3.554688 -3.859375 3.390625 -4.203125 C 3.222656 -4.546875 3 -4.71875 2.71875 -4.71875 C 2.46875 -4.71875 2.242188 -4.570312 2.046875 -4.28125 C 1.847656 -3.988281 1.695312 -3.550781 1.59375 -2.96875 C 1.539062 -2.644531 1.515625 -2.3125 1.515625 -1.96875 C 1.515625 -1.425781 1.59375 -0.984375 1.75 -0.640625 C 1.90625 -0.304688 2.128906 -0.140625 2.421875 -0.140625 Z M 2.421875 -0.140625 "/></g></g></g><g fill="#3d3b3a" fill-opacity="1"><g transform="translate(242.192642, 262.353315)"><g><path d="M 3.578125 -4.9375 C 4.015625 -4.9375 4.34375 -4.820312 4.5625 -4.59375 C 4.789062 -4.375 4.90625 -4.050781 4.90625 -3.625 C 4.90625 -3.476562 4.894531 -3.332031 4.875 -3.1875 C 4.78125 -2.625 4.582031 -2.097656 4.28125 -1.609375 C 3.976562 -1.117188 3.601562 -0.722656 3.15625 -0.421875 C 2.71875 -0.128906 2.273438 0.015625 1.828125 0.015625 C 1.691406 0.015625 1.523438 0.00390625 1.328125 -0.015625 L 0.921875 2.234375 C 0.890625 2.441406 0.875 2.566406 0.875 2.609375 C 0.875 2.734375 0.898438 2.820312 0.953125 2.875 C 1.015625 2.925781 1.113281 2.953125 1.25 2.953125 C 1.289062 2.953125 1.378906 2.945312 1.515625 2.9375 C 1.546875 2.9375 1.566406 2.957031 1.578125 3 C 1.585938 3.039062 1.578125 3.0625 1.546875 3.0625 L -0.84375 3.453125 C -0.863281 3.460938 -0.878906 3.441406 -0.890625 3.390625 C -0.910156 3.347656 -0.90625 3.320312 -0.875 3.3125 C -0.695312 3.269531 -0.570312 3.21875 -0.5 3.15625 C -0.425781 3.101562 -0.367188 3.019531 -0.328125 2.90625 C -0.285156 2.789062 -0.238281 2.597656 -0.1875 2.328125 L 0.890625 -3.703125 C 0.710938 -3.597656 0.5 -3.453125 0.25 -3.265625 C 0.238281 -3.253906 0.226562 -3.25 0.21875 -3.25 C 0.175781 -3.25 0.144531 -3.265625 0.125 -3.296875 C 0.113281 -3.335938 0.125 -3.367188 0.15625 -3.390625 C 0.5 -3.660156 0.757812 -3.851562 0.9375 -3.96875 L 1.09375 -4.859375 C 1.09375 -4.867188 1.164062 -4.914062 1.3125 -5 C 1.539062 -5.144531 1.734375 -5.28125 1.890625 -5.40625 C 2.054688 -5.53125 2.160156 -5.675781 2.203125 -5.84375 C 2.210938 -5.875 2.238281 -5.882812 2.28125 -5.875 C 2.332031 -5.863281 2.351562 -5.84375 2.34375 -5.8125 L 2.125 -4.609375 C 2.625 -4.828125 3.109375 -4.9375 3.578125 -4.9375 Z M 3.734375 -2.765625 C 3.753906 -2.921875 3.765625 -3.035156 3.765625 -3.109375 C 3.765625 -3.460938 3.679688 -3.753906 3.515625 -3.984375 C 3.347656 -4.210938 3.082031 -4.328125 2.71875 -4.328125 C 2.488281 -4.328125 2.269531 -4.296875 2.0625 -4.234375 L 1.40625 -0.546875 C 1.6875 -0.421875 1.984375 -0.359375 2.296875 -0.359375 C 2.691406 -0.359375 3.003906 -0.570312 3.234375 -1 C 3.472656 -1.4375 3.640625 -2.023438 3.734375 -2.765625 Z M 3.734375 -2.765625 "/></g></g></g><g fill="#3d3b3a" fill-opacity="1"><g transform="translate(251.057635, 262.353315)"><g><path d="M 3.390625 -5.015625 C 3.710938 -5.015625 3.960938 -4.957031 4.140625 -4.84375 C 4.316406 -4.738281 4.40625 -4.59375 4.40625 -4.40625 C 4.40625 -4.03125 4.125 -3.675781 3.5625 -3.34375 C 3.007812 -3.007812 2.335938 -2.765625 1.546875 -2.609375 C 1.523438 -2.429688 1.515625 -2.253906 1.515625 -2.078125 C 1.515625 -1.578125 1.617188 -1.171875 1.828125 -0.859375 C 2.035156 -0.554688 2.34375 -0.40625 2.75 -0.40625 C 2.925781 -0.40625 3.117188 -0.4375 3.328125 -0.5 C 3.535156 -0.5625 3.722656 -0.660156 3.890625 -0.796875 L 3.90625 -0.796875 C 3.925781 -0.796875 3.945312 -0.78125 3.96875 -0.75 C 3.988281 -0.726562 3.988281 -0.707031 3.96875 -0.6875 C 3.664062 -0.394531 3.347656 -0.179688 3.015625 -0.046875 C 2.679688 0.0859375 2.347656 0.15625 2.015625 0.15625 C 1.429688 0.15625 0.992188 -0.0195312 0.703125 -0.375 C 0.421875 -0.726562 0.28125 -1.171875 0.28125 -1.703125 C 0.28125 -1.890625 0.300781 -2.097656 0.34375 -2.328125 C 0.425781 -2.773438 0.609375 -3.203125 0.890625 -3.609375 C 1.179688 -4.023438 1.546875 -4.363281 1.984375 -4.625 C 2.421875 -4.882812 2.890625 -5.015625 3.390625 -5.015625 Z M 3.125 -4.078125 C 3.132812 -4.109375 3.140625 -4.15625 3.140625 -4.21875 C 3.140625 -4.363281 3.101562 -4.472656 3.03125 -4.546875 C 2.96875 -4.628906 2.867188 -4.671875 2.734375 -4.671875 C 2.472656 -4.671875 2.238281 -4.5 2.03125 -4.15625 C 1.820312 -3.8125 1.671875 -3.363281 1.578125 -2.8125 C 2.535156 -3.0625 3.050781 -3.484375 3.125 -4.078125 Z M 3.125 -4.078125 "/></g></g></g><g fill="#3d3b3a" fill-opacity="1"><g transform="translate(259.319307, 262.353315)"><g><path d="M 3.734375 -4.96875 C 3.953125 -4.96875 4.160156 -4.882812 4.359375 -4.71875 C 4.554688 -4.5625 4.640625 -4.382812 4.609375 -4.1875 C 4.585938 -4.0625 4.523438 -3.941406 4.421875 -3.828125 C 4.328125 -3.722656 4.203125 -3.671875 4.046875 -3.671875 C 3.898438 -3.671875 3.738281 -3.742188 3.5625 -3.890625 C 3.5 -3.929688 3.4375 -3.96875 3.375 -4 C 3.320312 -4.03125 3.265625 -4.046875 3.203125 -4.046875 C 3.066406 -4.046875 2.890625 -3.820312 2.671875 -3.375 C 2.460938 -2.9375 2.265625 -2.410156 2.078125 -1.796875 C 1.890625 -1.179688 1.753906 -0.632812 1.671875 -0.15625 C 1.648438 -0.0703125 1.582031 -0.0078125 1.46875 0.03125 C 1.351562 0.0703125 1.1875 0.09375 0.96875 0.09375 C 0.6875 0.09375 0.546875 0.0625 0.546875 0 C 0.554688 -0.0625 0.582031 -0.1875 0.625 -0.375 C 0.675781 -0.570312 0.71875 -0.757812 0.75 -0.9375 L 1.265625 -3.734375 C 1.285156 -3.867188 1.296875 -3.957031 1.296875 -4 C 1.296875 -4.238281 1.21875 -4.359375 1.0625 -4.359375 C 0.894531 -4.359375 0.660156 -4.1875 0.359375 -3.84375 C 0.347656 -3.84375 0.332031 -3.84375 0.3125 -3.84375 C 0.28125 -3.84375 0.253906 -3.851562 0.234375 -3.875 C 0.222656 -3.90625 0.226562 -3.9375 0.25 -3.96875 C 0.550781 -4.3125 0.820312 -4.5625 1.0625 -4.71875 C 1.300781 -4.882812 1.539062 -4.96875 1.78125 -4.96875 C 1.988281 -4.96875 2.140625 -4.910156 2.234375 -4.796875 C 2.328125 -4.679688 2.375 -4.515625 2.375 -4.296875 C 2.375 -4.171875 2.363281 -4.035156 2.34375 -3.890625 L 2.09375 -2.5 C 2.582031 -4.144531 3.128906 -4.96875 3.734375 -4.96875 Z M 3.734375 -4.96875 "/></g></g></g></svg>